<?xml version="1.0" standalone="no"?>
<!DOCTYPE svg PUBLIC "-//W3C//DTD SVG 20010904//EN"
 "http://www.w3.org/TR/2001/REC-SVG-20010904/DTD/svg10.dtd">
<svg version="1.0" xmlns="http://www.w3.org/2000/svg"
 width="2383.000000pt" height="2383.000000pt" viewBox="0 0 2383.000000 2383.000000"
 preserveAspectRatio="xMidYMid meet">
<metadata>
Created by potrace 1.14, written by Peter Selinger 2001-2017
</metadata>
<g transform="translate(0.000000,2383.000000) scale(0.100000,-0.100000)"
fill="#000000" stroke="none">
<path d="M11532 21909 c-1181 -43 -2367 -304 -3462 -762 -939 -393 -1867 -963
-2630 -1616 -317 -272 -769 -714 -1011 -991 -977 -1116 -1668 -2349 -2088
-3730 -497 -1637 -562 -3404 -185 -5085 498 -2222 1755 -4220 3554 -5647 1109
-880 2407 -1522 3765 -1862 1256 -315 2535 -384 3830 -205 1646 227 3242 885
4585 1890 402 301 703 562 1076 934 395 394 639 675 962 1104 526 701 970
1497 1297 2326 552 1398 781 2940 660 4445 -207 2564 -1381 4928 -3305 6655
-1455 1306 -3277 2162 -5201 2444 -619 91 -1216 123 -1847 100z m953 -699
c1638 -103 3187 -621 4555 -1525 408 -269 732 -523 1172 -915 l39 -35 -2996
-2995 -2995 -2995 0 1676 0 1675 73 23 c394 125 726 439 872 826 56 148 77
258 82 435 10 318 -59 566 -229 822 -75 112 -251 291 -359 365 -251 172 -528
251 -834 240 -217 -8 -384 -50 -569 -144 -138 -69 -230 -137 -352 -258 -197
-196 -318 -415 -380 -690 -24 -107 -30 -388 -10 -500 90 -520 452 -940 944
-1096 l72 -23 0 -2020 0 -2021 -2169 -2169 c-1297 -1297 -2173 -2166 -2180
-2162 -27 17 -160 235 -232 381 -115 235 -180 446 -226 730 -14 85 -17 231
-20 1000 l-4 900 413 -411 c481 -479 467 -469 623 -469 84 0 107 4 146 23 74
36 125 87 161 160 30 59 33 76 33 152 0 156 47 100 -779 928 -793 795 -778
782 -903 797 -112 14 -253 -51 -320 -148 -67 -98 -63 -19 -63 -1416 0 -773 4
-1320 10 -1406 43 -580 243 -1133 573 -1589 40 -54 78 -107 86 -118 14 -18
-37 -71 -805 -839 l-819 -819 -101 112 c-874 980 -1507 2067 -1914 3288 -563
1687 -629 3500 -190 5226 535 2108 1798 3963 3575 5255 638 464 1405 877 2160
1164 921 350 1910 552 2910 595 228 10 714 4 950 -10z m6376 -3100 c1207
-1353 2000 -3040 2263 -4815 72 -487 99 -858 99 -1380 0 -522 -27 -893 -99
-1380 -223 -1504 -836 -2969 -1752 -4190 -686 -913 -1525 -1690 -2481 -2297
-1228 -780 -2642 -1265 -4086 -1402 -578 -55 -1202 -55 -1780 0 -940 89 -1871
326 -2755 701 -239 101 -734 348 -965 481 -614 352 -1086 697 -1686 1232 l-40
35 820 820 820 819 43 -32 c458 -341 923 -535 1483 -619 184 -27 659 -25 845
4 356 56 654 149 954 300 547 274 995 699 1308 1239 l64 111 44 -81 c152 -274
381 -565 610 -774 476 -434 1022 -694 1670 -795 113 -17 181 -21 425 -21 303
-1 370 5 606 50 503 97 996 333 1397 669 580 487 968 1181 1076 1925 32 222
36 381 36 1641 0 1397 4 1318 -63 1416 -67 97 -208 163 -320 148 -124 -17 -94
10 -885 -779 -836 -834 -797 -788 -797 -946 0 -76 3 -92 33 -152 36 -73 87
-124 161 -160 39 -19 62 -23 146 -23 156 0 142 -10 623 469 l413 411 -4 -900
c-4 -964 -3 -947 -57 -1200 -95 -441 -358 -904 -694 -1222 -361 -341 -797
-555 -1301 -640 -156 -26 -563 -26 -720 0 -516 86 -955 305 -1318 656 -414
401 -671 933 -726 1505 -7 71 -11 586 -11 1475 l0 1366 3237 3237 3238 3238
21 -23 c11 -12 59 -65 105 -117z m-6777 -10 c224 -57 396 -214 482 -442 26
-68 28 -83 29 -223 0 -138 -2 -156 -27 -223 -40 -110 -84 -178 -173 -267 -62
-62 -99 -90 -165 -123 -114 -57 -181 -72 -315 -72 -132 0 -199 15 -314 71 -67
33 -102 59 -165 123 -90 90 -134 158 -174 268 -25 67 -27 85 -27 223 0 143 2
154 31 230 69 179 181 303 353 390 130 65 316 83 465 45z m-524 -9143 c-46
-565 -293 -1092 -704 -1502 -210 -209 -392 -339 -651 -465 -221 -107 -435
-175 -690 -217 -157 -26 -564 -26 -720 0 -255 43 -476 113 -700 222 -125 61
-375 216 -375 232 0 4 865 873 1923 1931 l1922 1922 3 -992 c2 -671 0 -1038
-8 -1131z"/>
</g>
</svg>
